{
  "accessors": [
    {
      "bufferView": 2,
      "componentType": 5126,
      "count": 25982,
      "max": [
        29.01763343811035,
        174.04502868652344,
        28.31044578552246
      ],
      "min": [
        -41.113136291503906,
        -1.3671302795410156,
        -20.82538414001465
      ],
      "type": "VEC3"
    },
    {
      "bufferView": 2,
      "byteOffset": 311784,
      "componentType": 5126,
      "count": 25982,
      "max": [
        0.9999933242797852,
        0.9999461770057678,
        0.9999436140060425
      ],
      "min": [
        -0.999977707862854,
        -0.9997715353965759,
        -0.9999822378158569
      ],
      "type": "VEC3"
    },
    {
      "bufferView": 1,
      "componentType": 5126,
      "count": 25982,
      "max": [
        0.98403000831604,
        0.9980400204658508
      ],
      "min": [
        0.0019499999471008778,
        0.0019500255584716797
      ],
      "type": "VEC2"
    },
    {
      "bufferView": 0,
      "componentType": 5125,
      "count": 104997,
      "type": "SCALAR"
    }
  ],
  "asset": {
    "extras": {
      "author": "ddd (https://sketchfab.com/endonoriko)",
      "license": "CC-BY-4.0 (http://creativecommons.org/licenses/by/4.0/)",
      "source": "https://sketchfab.com/3d-models/free-049-ken-8629bada3a2344d8b03214f7dde44693",
      "title": "Free 049 Ken"
    },
    "generator": "Sketchfab-12.65.0",
    "version": "2.0"
  },
  "bufferViews": [
    {
      "buffer": 0,
      "byteLength": 419988,
      "name": "floatBufferViews",
      "target": 34963
    },
    {
      "buffer": 0,
      "byteLength": 207856,
      "byteOffset": 419988,
      "byteStride": 8,
      "name": "floatBufferViews",
      "target": 34962
    },
    {
      "buffer": 0,
      "byteLength": 623568,
      "byteOffset": 627844,
      "byteStride": 12,
      "name": "floatBufferViews",
      "target": 34962
    }
  ],
  "buffers": [
    {
      "byteLength": 1251412,
      "uri": "scene.bin"
    }
  ],
  "images": [
    {
      "uri": "textures/049_Ken_01_baseColor.jpeg"
    }
  ],
  "materials": [
    {
      "doubleSided": true,
      "name": "049_Ken_01",
      "pbrMetallicRoughness": {
        "baseColorTexture": {
          "index": 0
        },
        "metallicFactor": 0.0,
        "roughnessFactor": 0.6
      }
    }
  ],
  "meshes": [
    {
      "name": "049_Ken_01_049_Ken_01_0",
      "primitives": [
        {
          "attributes": {
            "NORMAL": 1,
            "POSITION": 0,
            "TEXCOORD_0": 2
          },
          "indices": 3,
          "material": 0,
          "mode": 4
        }
      ]
    }
  ],
  "nodes": [
    {
      "children": [
        1
      ],
      "matrix": [
        1.0,
        0.0,
        0.0,
        0.0,
        0.0,
        2.220446049250313e-16,
        -1.0,
        0.0,
        0.0,
        1.0,
        2.220446049250313e-16,
        0.0,
        0.0,
        0.0,
        0.0,
        1.0
      ],
      "name": "Sketchfab_model"
    },
    {
      "children": [
        2
      ],
      "matrix": [
        1.0,
        0.0,
        0.0,
        0.0,
        0.0,
        0.0,
        1.0,
        0.0,
        0.0,
        -1.0,
        0.0,
        0.0,
        0.0,
        0.0,
        0.0,
        1.0
      ],
      "name": "7874bc56c50a4173aed9e90e299b2d80.fbx"
    },
    {
      "children": [
        3
      ],
      "name": "RootNode"
    },
    {
      "children": [
        4
      ],
      "matrix": [
        1.0,
        0.0,
        2.7755575615628914e-17,
        0.0,
        0.0,
        1.0,
        0.0,
        0.0,
        -2.7755575615628914e-17,
        0.0,
        1.0,
        0.0,
        0.0,
        0.0,
        -9.342967378759854e-15,
        1.0
      ],
      "name": "049_Ken_01"
    },
    {
      "mesh": 0,
      "name": "049_Ken_01_049_Ken_01_0"
    }
  ],
  "samplers": [
    {
      "magFilter": 9729,
      "minFilter": 9987,
      "wrapS": 10497,
      "wrapT": 10497
    }
  ],
  "scene": 0,
  "scenes": [
    {
      "name": "Sketchfab_Scene",
      "nodes": [
        0
      ]
    }
  ],
  "textures": [
    {
      "sampler": 0,
      "source": 0
    }
  ]
}
